<svg width="8" height="7" viewBox="0 0 8 7" fill="none" xmlns="http://www.w3.org/2000/svg">
<path d="M2.60072 0.0390236C2.41851 0.0166201 2.2348 0.00317874 2.05109 0.000191599C1.76283 -0.00428911 1.60302 0.070388 1.42528 0.164483C0.169188 0.829122 -0.413305 3.4817 0.326012 5.18736C0.514202 5.6205 0.890582 6.44495 1.95251 6.78249C2.03316 6.80788 2.23181 6.86763 2.52007 6.90347C3.08762 6.97367 3.9987 6.95276 5.00388 6.39118C6.06282 5.79972 7.16358 4.6452 7.24274 3.53995C7.31891 2.46608 6.41679 1.75364 6.05684 1.49525C5.95677 1.42207 5.8567 1.35486 5.75962 1.29064C4.88439 0.720092 3.78064 0.185394 2.60072 0.0390236Z" fill="#CB4A74"/>
</svg>
